<svg width="21" height="20" viewBox="0 0 21 20" fill="none" xmlns="http://www.w3.org/2000/svg">
<path id="Vector" d="M20.228 17.2913L16.3332 13.3971C16.1574 13.2214 15.9191 13.1237 15.6691 13.1237H15.0323C16.1105 11.7449 16.7512 10.0107 16.7512 8.12421C16.7512 3.63636 13.1142 0 8.62559 0C4.13698 0 0.5 3.63636 0.5 8.12421C0.5 12.612 4.13698 16.2484 8.62559 16.2484C10.5125 16.2484 12.247 15.6079 13.626 14.5298V15.1665C13.626 15.4165 13.7236 15.6547 13.8994 15.8305L17.7942 19.7246C18.1614 20.0918 18.7552 20.0918 19.1185 19.7246L20.2241 18.6193C20.5913 18.2521 20.5913 17.6584 20.228 17.2913ZM8.62559 13.1237C5.86367 13.1237 3.62523 10.8896 3.62523 8.12421C3.62523 5.36276 5.85977 3.12469 8.62559 3.12469C11.3875 3.12469 13.626 5.35885 13.626 8.12421C13.626 10.8857 11.3914 13.1237 8.62559 13.1237Z" fill="white"/>
</svg>
