<svg width="21" height="22" viewBox="0 0 21 22" fill="none" xmlns="http://www.w3.org/2000/svg">
<g id="Swap">
<path id="Vector" d="M3.5 8.375H14.875L13.475 9.425C13.3831 9.49394 13.3056 9.58032 13.2471 9.67919C13.1885 9.77806 13.15 9.8875 13.1338 10.0013C13.1175 10.115 13.1239 10.2308 13.1524 10.3422C13.1809 10.4535 13.2311 10.5581 13.3 10.65C13.3815 10.7587 13.4872 10.8469 13.6087 10.9076C13.7302 10.9684 13.8642 11 14 11C14.1893 11 14.3735 10.9386 14.525 10.825L18.025 8.2C18.132 8.11834 18.2188 8.01309 18.2785 7.89244C18.3382 7.77179 18.3692 7.63899 18.3692 7.50437C18.3692 7.36976 18.3382 7.23696 18.2785 7.11631C18.2188 6.99566 18.132 6.89041 18.025 6.80875L14.6475 4.18375C14.4642 4.04103 14.2317 3.97698 14.0011 4.0057C13.7705 4.03441 13.5608 4.15354 13.4181 4.33687C13.2754 4.5202 13.2114 4.75272 13.2401 4.98327C13.2688 5.21383 13.3879 5.42353 13.5712 5.56625L14.945 6.625H3.5C3.26794 6.625 3.04538 6.71719 2.88128 6.88128C2.71719 7.04537 2.625 7.26793 2.625 7.5C2.625 7.73206 2.71719 7.95462 2.88128 8.11872C3.04538 8.28281 3.26794 8.375 3.5 8.375ZM17.5 14.5H6.125L7.525 13.45C7.71065 13.3108 7.83339 13.1035 7.86621 12.8737C7.89902 12.644 7.83924 12.4106 7.7 12.225C7.56076 12.0393 7.35348 11.9166 7.12374 11.8838C6.89401 11.851 6.66065 11.9108 6.475 12.05L2.975 14.675C2.86798 14.7567 2.78125 14.8619 2.72154 14.9826C2.66184 15.1032 2.63078 15.236 2.63078 15.3706C2.63078 15.5052 2.66184 15.638 2.72154 15.7587C2.78125 15.8793 2.86798 15.9846 2.975 16.0662L6.3525 18.6912C6.50523 18.8098 6.69292 18.8744 6.88625 18.875C7.01988 18.8747 7.15166 18.8438 7.27148 18.7846C7.3913 18.7254 7.49599 18.6396 7.5775 18.5337C7.71959 18.3513 7.78371 18.1201 7.75584 17.8906C7.72796 17.661 7.61037 17.4519 7.42875 17.3087L6.055 16.25H17.5C17.7321 16.25 17.9546 16.1578 18.1187 15.9937C18.2828 15.8296 18.375 15.6071 18.375 15.375C18.375 15.1429 18.2828 14.9204 18.1187 14.7563C17.9546 14.5922 17.7321 14.5 17.5 14.5Z" fill="#00150D"/>
</g>
</svg>
